<svg width="49" height="48" viewBox="0 0 49 48" fill="none" xmlns="http://www.w3.org/2000/svg">
<path d="M32.5 42V38C32.5 35.8783 31.6571 33.8434 30.1569 32.3431C28.6566 30.8429 26.6217 30 24.5 30H10.5C8.37827 30 6.34344 30.8429 4.84315 32.3431C3.34285 33.8434 2.5 35.8783 2.5 38V42" stroke="#57647E" stroke-width="2" stroke-linecap="round" stroke-linejoin="round"/>
<path d="M17.5 22C21.9183 22 25.5 18.4183 25.5 14C25.5 9.58172 21.9183 6 17.5 6C13.0817 6 9.5 9.58172 9.5 14C9.5 18.4183 13.0817 22 17.5 22Z" stroke="#57647E" stroke-width="2" stroke-linecap="round" stroke-linejoin="round"/>
<path d="M34.5 22L38.5 26L46.5 18" stroke="#57647E" stroke-width="2" stroke-linecap="round" stroke-linejoin="round"/>
</svg>
